# xmcd CD database file
#
# Track frame offsets:
#	150
#	28115
#	43806
#	59037
#	72602
#	85501
#	101687
#	120810
#	135393
#	147063
#	165446
#	180578
#	201607
#	215657
#	227903
#	244642
#	266284
#
# Disc length: 3885 seconds
#
# Revision: 0
# Processed by: cddbd v1.5.2PL0 Copyright (c) Steve Scherf et al.
# Submitted via: CDex 1.51
#
DISCID=f30f2b11
DTITLE=Fiddlin' Fantastic - On The Fiddle Live
DYEAR=1900
DGENRE=Country
TTITLE0=Lord Of The Dance
TTITLE1=Where the fealin goes
TTITLE2=Have a nice day
TTITLE3=Hot Love
TTITLE4=King of The Road
TTITLE5=Maggie May
TTITLE6=Why does it always rain on me
TTITLE7=Crazy little thing called love
TTITLE8=Walk right back
TTITLE9=Run away
TTITLE10=Letter from America
TTITLE11=Vienna
TTITLE12=Old Time Medley
TTITLE13=Will you still love me tomorrow
TTITLE14=Mony Mony
TTITLE15=Feilds of athenry
TTITLE16=Irish Medley Pt1
EXTD=
EXTT0=
EXTT1=
EXTT2=
EXTT3=
EXTT4=
EXTT5=
EXTT6=
EXTT7=
EXTT8=
EXTT9=
EXTT10=
EXTT11=
EXTT12=
EXTT13=
EXTT14=
EXTT15=
EXTT16=
PLAYORDER=
